<svg width="450" height="264" viewBox="0 0 450 264" fill="none" xmlns="http://www.w3.org/2000/svg">
<g opacity="0.05">
<g filter="url(#filter0_f_18919_7628)">
<rect x="3" y="68" width="163" height="130" rx="12" fill="#0A0A0A" style="fill:#0A0A0A;fill:color(display-p3 0.0392 0.0392 0.0392);fill-opacity:1;"/>
<rect x="2.5" y="67.5" width="164" height="131" rx="12.5" stroke="#0A0A0A" style="stroke:#0A0A0A;stroke:color(display-p3 0.0392 0.0392 0.0392);stroke-opacity:1;"/>
</g>
<g filter="url(#filter1_f_18919_7628)">
<path d="M192 108C192 103.582 195.582 100 200 100H250C254.418 100 258 103.582 258 108V158C258 162.418 254.418 166 250 166H200C195.582 166 192 162.418 192 158V108Z" fill="#0A0A0A" style="fill:#0A0A0A;fill:color(display-p3 0.0392 0.0392 0.0392);fill-opacity:1;"/>
<path d="M250 99.5C254.694 99.5 258.5 103.306 258.5 108V158C258.5 162.694 254.694 166.5 250 166.5H200C195.306 166.5 191.5 162.694 191.5 158V108C191.5 103.306 195.306 99.5 200 99.5H250Z" stroke="#0A0A0A" style="stroke:#0A0A0A;stroke:color(display-p3 0.0392 0.0392 0.0392);stroke-opacity:1;"/>
</g>
<g filter="url(#filter2_f_18919_7628)">
<path d="M314 37C314 32.5817 317.582 29 322 29H439C443.418 29 447 32.5817 447 37V55C447 59.4183 443.418 63 439 63H322C317.582 63 314 59.4183 314 55V37Z" fill="#0A0A0A" style="fill:#0A0A0A;fill:color(display-p3 0.0392 0.0392 0.0392);fill-opacity:1;"/>
<path d="M439 28.5C443.694 28.5 447.5 32.3056 447.5 37V55C447.5 59.6944 443.694 63.5 439 63.5H322C317.306 63.5 313.5 59.6944 313.5 55V37C313.5 32.3056 317.306 28.5 322 28.5H439Z" stroke="#0A0A0A" style="stroke:#0A0A0A;stroke:color(display-p3 0.0392 0.0392 0.0392);stroke-opacity:1;"/>
</g>
<g filter="url(#filter3_f_18919_7628)">
<path d="M314 95C314 90.5817 317.582 87 322 87H439C443.418 87 447 90.5817 447 95V113C447 117.418 443.418 121 439 121H322C317.582 121 314 117.418 314 113V95Z" fill="#0A0A0A" style="fill:#0A0A0A;fill:color(display-p3 0.0392 0.0392 0.0392);fill-opacity:1;"/>
<path d="M439 86.5C443.694 86.5 447.5 90.3056 447.5 95V113C447.5 117.694 443.694 121.5 439 121.5H322C317.306 121.5 313.5 117.694 313.5 113V95C313.5 90.3056 317.306 86.5 322 86.5H439Z" stroke="#0A0A0A" style="stroke:#0A0A0A;stroke:color(display-p3 0.0392 0.0392 0.0392);stroke-opacity:1;"/>
</g>
<g filter="url(#filter4_f_18919_7628)">
<path d="M314 153C314 148.582 317.582 145 322 145H439C443.418 145 447 148.582 447 153V171C447 175.418 443.418 179 439 179H322C317.582 179 314 175.418 314 171V153Z" fill="#0A0A0A" style="fill:#0A0A0A;fill:color(display-p3 0.0392 0.0392 0.0392);fill-opacity:1;"/>
<path d="M439 144.5C443.694 144.5 447.5 148.306 447.5 153V171C447.5 175.694 443.694 179.5 439 179.5H322C317.306 179.5 313.5 175.694 313.5 171V153C313.5 148.306 317.306 144.5 322 144.5H439Z" stroke="#0A0A0A" style="stroke:#0A0A0A;stroke:color(display-p3 0.0392 0.0392 0.0392);stroke-opacity:1;"/>
</g>
<g filter="url(#filter5_f_18919_7628)">
<path d="M314 211C314 206.582 317.582 203 322 203H439C443.418 203 447 206.582 447 211V229C447 233.418 443.418 237 439 237H322C317.582 237 314 233.418 314 229V211Z" fill="#0A0A0A" style="fill:#0A0A0A;fill:color(display-p3 0.0392 0.0392 0.0392);fill-opacity:1;"/>
<path d="M439 202.5C443.694 202.5 447.5 206.306 447.5 211V229C447.5 233.694 443.694 237.5 439 237.5H322C317.306 237.5 313.5 233.694 313.5 229V211C313.5 206.306 317.306 202.5 322 202.5H439Z" stroke="#0A0A0A" style="stroke:#0A0A0A;stroke:color(display-p3 0.0392 0.0392 0.0392);stroke-opacity:1;"/>
</g>
</g>
<path d="M169 132.5C169 134.157 167.657 135.5 166 135.5C164.343 135.5 163 134.157 163 132.5C163 130.843 164.343 129.5 166 129.5C167.657 129.5 169 130.843 169 132.5Z" fill="#2E2E2E" style="fill:#2E2E2E;fill:color(display-p3 0.1804 0.1804 0.1804);fill-opacity:1;"/>
<g clip-path="url(#clip0_18919_7628)">
<rect x="3" y="67" width="163" height="130" rx="12" fill="#0A0A0A" style="fill:#0A0A0A;fill:color(display-p3 0.0392 0.0392 0.0392);fill-opacity:1;"/>
<circle cx="15.7969" cy="79.5" r="3" fill="white" fill-opacity="0.145" style="fill:white;fill-opacity:0.145;"/>
<circle cx="25.0625" cy="79.5" r="3" fill="white" fill-opacity="0.145" style="fill:white;fill-opacity:0.145;"/>
<circle cx="34.3262" cy="79.5" r="3" fill="white" fill-opacity="0.145" style="fill:white;fill-opacity:0.145;"/>
<mask id="mask0_18919_7628" style="mask-type:alpha" maskUnits="userSpaceOnUse" x="10" y="66" width="149" height="132">
<rect width="148.544" height="130.588" transform="matrix(-1 0 0 1 158.891 66.7061)" fill="url(#paint0_linear_18919_7628)" style=""/>
</mask>
<g mask="url(#mask0_18919_7628)">
<mask id="path-20-inside-1_18919_7628" fill="white">
<path d="M107.467 97.7207C111.974 97.7207 115.629 101.375 115.629 105.883C115.629 110.39 111.974 114.044 107.467 114.044H25.8496C24.1908 114.044 22.6484 113.547 21.3604 112.697C20.0722 113.548 18.5301 114.045 16.8711 114.045H16.0547C17.1191 112.448 17.6875 110.572 17.6875 108.653V105.883C17.6875 101.375 21.342 97.7207 25.8496 97.7207H107.467Z"/>
</mask>
<path d="M107.467 97.7207C111.974 97.7207 115.629 101.375 115.629 105.883C115.629 110.39 111.974 114.044 107.467 114.044H25.8496C24.1908 114.044 22.6484 113.547 21.3604 112.697C20.0722 113.548 18.5301 114.045 16.8711 114.045H16.0547C17.1191 112.448 17.6875 110.572 17.6875 108.653V105.883C17.6875 101.375 21.342 97.7207 25.8496 97.7207H107.467Z" fill="black" style="fill:black;fill-opacity:1;"/>
<path d="M115.629 105.883L116.629 105.883V105.883H115.629ZM21.3604 112.697L21.9112 111.863L21.3603 111.499L20.8094 111.863L21.3604 112.697ZM16.8711 114.045L16.8711 115.045L16.8711 115.045L16.8711 114.045ZM16.0547 114.045L15.2226 113.49L14.1862 115.045H16.0547V114.045ZM17.6875 108.653L18.6875 108.653V108.653H17.6875ZM107.467 97.7207V98.7207C111.422 98.7207 114.629 101.927 114.629 105.883H115.629H116.629C116.629 100.823 112.527 96.7207 107.467 96.7207V97.7207ZM115.629 105.883L114.629 105.883C114.629 109.838 111.422 113.044 107.467 113.044V114.044V115.044C112.526 115.044 116.629 110.943 116.629 105.883L115.629 105.883ZM107.467 114.044V113.044H25.8496V114.044V115.044H107.467V114.044ZM25.8496 114.044V113.044C24.3934 113.044 23.0416 112.609 21.9112 111.863L21.3604 112.697L20.8095 113.532C22.2553 114.486 23.9882 115.044 25.8496 115.044V114.044ZM21.3604 112.697L20.8094 111.863C19.6788 112.609 18.3272 113.045 16.8711 113.045L16.8711 114.045L16.8711 115.045C18.733 115.045 20.4656 114.486 21.9113 113.532L21.3604 112.697ZM16.8711 114.045V113.045H16.0547V114.045V115.045H16.8711V114.045ZM16.0547 114.045L16.8867 114.6C18.0605 112.839 18.6875 110.77 18.6875 108.653L17.6875 108.653L16.6875 108.653C16.6875 110.375 16.1776 112.058 15.2226 113.49L16.0547 114.045ZM17.6875 108.653H18.6875V105.883H17.6875H16.6875V108.653H17.6875ZM17.6875 105.883H18.6875C18.6875 101.927 21.8943 98.7207 25.8496 98.7207V97.7207V96.7207C20.7897 96.7207 16.6875 100.823 16.6875 105.883H17.6875ZM25.8496 97.7207V98.7207H107.467V97.7207V96.7207H25.8496V97.7207Z" fill="white" fill-opacity="0.239" style="fill:white;fill-opacity:0.239;" mask="url(#path-20-inside-1_18919_7628)"/>
<mask id="path-22-inside-2_18919_7628" fill="white">
<path d="M58.4961 123.839C63.0037 123.839 66.6582 127.493 66.6582 132.001C66.658 136.508 63.0036 140.162 58.4961 140.162H25.8496C24.1908 140.162 22.6484 139.666 21.3604 138.815C20.0722 139.666 18.5301 140.163 16.8711 140.163H16.0547C17.1191 138.567 17.6875 136.69 17.6875 134.771V132.001C17.6875 127.493 21.342 123.839 25.8496 123.839H58.4961Z"/>
</mask>
<path d="M58.4961 123.839C63.0037 123.839 66.6582 127.493 66.6582 132.001C66.658 136.508 63.0036 140.162 58.4961 140.162H25.8496C24.1908 140.162 22.6484 139.666 21.3604 138.815C20.0722 139.666 18.5301 140.163 16.8711 140.163H16.0547C17.1191 138.567 17.6875 136.69 17.6875 134.771V132.001C17.6875 127.493 21.342 123.839 25.8496 123.839H58.4961Z" fill="black" style="fill:black;fill-opacity:1;"/>
<path d="M66.6582 132.001L67.6582 132.001V132.001H66.6582ZM21.3604 138.815L21.9112 137.981L21.3603 137.617L20.8094 137.981L21.3604 138.815ZM16.8711 140.163L16.8711 141.163L16.8711 141.163L16.8711 140.163ZM16.0547 140.163L15.2226 139.608L14.1862 141.163H16.0547V140.163ZM17.6875 134.771L18.6875 134.771V134.771H17.6875ZM58.4961 123.839V124.839C62.4514 124.839 65.6582 128.046 65.6582 132.001H66.6582H67.6582C67.6582 126.941 63.556 122.839 58.4961 122.839V123.839ZM66.6582 132.001L65.6582 132.001C65.658 135.956 62.4514 139.162 58.4961 139.162V140.162V141.162C63.5558 141.162 67.658 137.061 67.6582 132.001L66.6582 132.001ZM58.4961 140.162V139.162H25.8496V140.162V141.162H58.4961V140.162ZM25.8496 140.162V139.162C24.3934 139.162 23.0415 138.727 21.9112 137.981L21.3604 138.815L20.8095 139.65C22.2553 140.604 23.9882 141.162 25.8496 141.162V140.162ZM21.3604 138.815L20.8094 137.981C19.6788 138.727 18.3272 139.163 16.8711 139.163L16.8711 140.163L16.8711 141.163C18.733 141.163 20.4656 140.604 21.9113 139.65L21.3604 138.815ZM16.8711 140.163V139.163H16.0547V140.163V141.163H16.8711V140.163ZM16.0547 140.163L16.8867 140.718C18.0605 138.957 18.6875 136.888 18.6875 134.771L17.6875 134.771L16.6875 134.771C16.6875 136.493 16.1776 138.176 15.2226 139.608L16.0547 140.163ZM17.6875 134.771H18.6875V132.001H17.6875H16.6875V134.771H17.6875ZM17.6875 132.001H18.6875C18.6875 128.046 21.8943 124.839 25.8496 124.839V123.839V122.839C20.7897 122.839 16.6875 126.941 16.6875 132.001H17.6875ZM25.8496 123.839V124.839H58.4961V123.839V122.839H25.8496V123.839Z" fill="white" fill-opacity="0.239" style="fill:white;fill-opacity:0.239;" mask="url(#path-22-inside-2_18919_7628)"/>
<mask id="path-24-inside-3_18919_7628" fill="white">
<path d="M74.8281 176.074C79.3355 176.074 82.9893 179.729 82.9893 184.236V208.722C82.989 213.229 79.3354 216.883 74.8281 216.883H25.8574C21.3499 216.883 17.6955 213.229 17.6953 208.722V184.236C17.6953 179.729 21.3498 176.074 25.8574 176.074H74.8281Z"/>
</mask>
<path d="M74.8281 176.074C79.3355 176.074 82.9893 179.729 82.9893 184.236V208.722C82.989 213.229 79.3354 216.883 74.8281 216.883H25.8574C21.3499 216.883 17.6955 213.229 17.6953 208.722V184.236C17.6953 179.729 21.3498 176.074 25.8574 176.074H74.8281Z" fill="black" style="fill:black;fill-opacity:1;"/>
<path d="M74.8281 176.074L74.8282 175.074H74.8281V176.074ZM82.9893 208.722L83.9893 208.722V208.722H82.9893ZM74.8281 216.883L74.8281 217.883L74.8282 217.883L74.8281 216.883ZM17.6953 208.722L16.6953 208.722L16.6953 208.722L17.6953 208.722ZM74.8281 176.074L74.8281 177.074C78.7831 177.074 81.9893 180.281 81.9893 184.236H82.9893H83.9893C83.9893 179.177 79.8879 175.074 74.8282 175.074L74.8281 176.074ZM82.9893 184.236H81.9893V208.722H82.9893H83.9893V184.236H82.9893ZM82.9893 208.722L81.9893 208.722C81.9891 212.677 78.7831 215.883 74.8281 215.883L74.8281 216.883L74.8282 217.883C79.8877 217.883 83.989 213.781 83.9893 208.722L82.9893 208.722ZM74.8281 216.883V215.883H25.8574V216.883V217.883H74.8281V216.883ZM25.8574 216.883V215.883C21.9021 215.883 18.6955 212.677 18.6953 208.722L17.6953 208.722L16.6953 208.722C16.6956 213.782 20.7978 217.883 25.8574 217.883V216.883ZM17.6953 208.722H18.6953V184.236H17.6953H16.6953V208.722H17.6953ZM17.6953 184.236H18.6953C18.6953 180.281 21.9021 177.074 25.8574 177.074V176.074V175.074C20.7975 175.074 16.6953 179.176 16.6953 184.236H17.6953ZM25.8574 176.074V177.074H74.8281V176.074V175.074H25.8574V176.074Z" fill="white" fill-opacity="0.239" style="fill:white;fill-opacity:0.239;" mask="url(#path-24-inside-3_18919_7628)"/>
<mask id="path-26-inside-4_18919_7628" fill="white">
<path d="M110.73 149.956C106.223 149.956 102.568 153.611 102.568 158.118C102.569 162.626 106.223 166.279 110.73 166.279H143.377C145.036 166.279 146.578 165.783 147.866 164.933C149.154 165.783 150.696 166.28 152.355 166.28H153.172C152.108 164.684 151.539 162.807 151.539 160.889V158.118C151.539 153.611 147.885 149.956 143.377 149.956H110.73Z"/>
</mask>
<path d="M110.73 149.956C106.223 149.956 102.568 153.611 102.568 158.118C102.569 162.626 106.223 166.279 110.73 166.279H143.377C145.036 166.279 146.578 165.783 147.866 164.933C149.154 165.783 150.696 166.28 152.355 166.28H153.172C152.108 164.684 151.539 162.807 151.539 160.889V158.118C151.539 153.611 147.885 149.956 143.377 149.956H110.73Z" fill="black" style="fill:black;fill-opacity:1;"/>
<path d="M102.568 158.118L101.568 158.118V158.118H102.568ZM147.866 164.933L147.315 164.098L147.866 163.734L148.417 164.098L147.866 164.933ZM152.355 166.28L152.355 167.28L152.355 167.28L152.355 166.28ZM153.172 166.28L154.004 165.726L155.04 167.28H153.172V166.28ZM151.539 160.889L150.539 160.889V160.889H151.539ZM110.73 149.956V150.956C106.775 150.956 103.568 154.163 103.568 158.118H102.568H101.568C101.568 153.058 105.671 148.956 110.73 148.956V149.956ZM102.568 158.118L103.568 158.118C103.569 162.073 106.775 165.279 110.73 165.279V166.279V167.279C105.671 167.279 101.569 163.178 101.568 158.118L102.568 158.118ZM110.73 166.279V165.279H143.377V166.279V167.279H110.73V166.279ZM143.377 166.279V165.279C144.833 165.279 146.185 164.844 147.315 164.098L147.866 164.933L148.417 165.767C146.971 166.722 145.238 167.279 143.377 167.279V166.279ZM147.866 164.933L148.417 164.098C149.548 164.844 150.899 165.28 152.355 165.28L152.355 166.28L152.355 167.28C150.494 167.28 148.761 166.722 147.315 165.767L147.866 164.933ZM152.355 166.28V165.28H153.172V166.28V167.28H152.355V166.28ZM153.172 166.28L152.34 166.835C151.166 165.074 150.539 163.005 150.539 160.889L151.539 160.889L152.539 160.889C152.539 162.61 153.049 164.293 154.004 165.726L153.172 166.28ZM151.539 160.889H150.539V158.118H151.539H152.539V160.889H151.539ZM151.539 158.118H150.539C150.539 154.163 147.332 150.956 143.377 150.956V149.956V148.956C148.437 148.956 152.539 153.058 152.539 158.118H151.539ZM143.377 149.956V150.956H110.73V149.956V148.956H143.377V149.956Z" fill="white" fill-opacity="0.239" style="fill:white;fill-opacity:0.239;" mask="url(#path-26-inside-4_18919_7628)"/>
<mask id="path-28-inside-5_18919_7628" fill="white">
<path d="M86.2451 47.1182C81.7375 47.1182 78.083 50.7727 78.083 55.2803V79.7656C78.0832 84.2731 81.7376 87.9268 86.2451 87.9268H143.377C145.036 87.9268 146.578 87.4302 147.866 86.5801C149.154 87.4304 150.696 87.9277 152.355 87.9277H153.172C152.108 86.3312 151.539 84.455 151.539 82.5361V55.2803C151.539 50.7727 147.885 47.1182 143.377 47.1182H86.2451Z"/>
</mask>
<path d="M86.2451 47.1182C81.7375 47.1182 78.083 50.7727 78.083 55.2803V79.7656C78.0832 84.2731 81.7376 87.9268 86.2451 87.9268H143.377C145.036 87.9268 146.578 87.4302 147.866 86.5801C149.154 87.4304 150.696 87.9277 152.355 87.9277H153.172C152.108 86.3312 151.539 84.455 151.539 82.5361V55.2803C151.539 50.7727 147.885 47.1182 143.377 47.1182H86.2451Z" fill="black" style="fill:black;fill-opacity:1;"/>
<path d="M78.083 79.7656L77.083 79.7657V79.7656H78.083ZM147.866 86.5801L147.315 85.7455L147.866 85.3819L148.417 85.7455L147.866 86.5801ZM152.355 87.9277L152.355 88.9277L152.355 88.9277L152.355 87.9277ZM153.172 87.9277L154.004 87.373L155.04 88.9277H153.172V87.9277ZM151.539 82.5361L150.539 82.5361V82.5361H151.539ZM86.2451 47.1182V48.1182C82.2898 48.1182 79.083 51.3249 79.083 55.2803H78.083H77.083C77.083 50.2204 81.1852 46.1182 86.2451 46.1182V47.1182ZM78.083 55.2803H79.083V79.7656H78.083H77.083V55.2803H78.083ZM78.083 79.7656L79.083 79.7656C79.0832 83.7207 82.2898 86.9268 86.2451 86.9268V87.9268V88.9268C81.1855 88.9268 77.0833 84.8255 77.083 79.7657L78.083 79.7656ZM86.2451 87.9268V86.9268H143.377V87.9268V88.9268H86.2451V87.9268ZM143.377 87.9268V86.9268C144.833 86.9268 146.185 86.4915 147.315 85.7455L147.866 86.5801L148.417 87.4147C146.971 88.369 145.238 88.9268 143.377 88.9268V87.9268ZM147.866 86.5801L148.417 85.7455C149.548 86.4919 150.899 86.9277 152.355 86.9277L152.355 87.9277L152.355 88.9277C150.494 88.9277 148.761 88.369 147.315 87.4146L147.866 86.5801ZM152.355 87.9277V86.9277H153.172V87.9277V88.9277H152.355V87.9277ZM153.172 87.9277L152.34 88.4824C151.166 86.7217 150.539 84.6525 150.539 82.5361L151.539 82.5361L152.539 82.5361C152.539 84.2574 153.049 85.9406 154.004 87.373L153.172 87.9277ZM151.539 82.5361H150.539V55.2803H151.539H152.539V82.5361H151.539ZM151.539 55.2803H150.539C150.539 51.3249 147.332 48.1182 143.377 48.1182V47.1182V46.1182C148.437 46.1182 152.539 50.2204 152.539 55.2803H151.539ZM143.377 47.1182V48.1182H86.2451V47.1182V46.1182H143.377V47.1182Z" fill="white" fill-opacity="0.239" style="fill:white;fill-opacity:0.239;" mask="url(#path-28-inside-5_18919_7628)"/>
</g>
</g>
<rect x="2.5" y="66.5" width="164" height="131" rx="12.5" stroke="#2E2E2E" style="stroke:#2E2E2E;stroke:color(display-p3 0.1804 0.1804 0.1804);stroke-opacity:1;"/>
<path opacity="0.2" d="M322 161C322 165.418 318.418 169 314 169C309.582 169 306 165.418 306 161C306 156.582 309.582 153 314 153C318.418 153 322 156.582 322 161Z" fill="#FFB224" style="fill:#FFB224;fill:color(display-p3 1.0000 0.6980 0.1412);fill-opacity:1;"/>
<path opacity="0.2" d="M322 103C322 107.418 318.418 111 314 111C309.582 111 306 107.418 306 103C306 98.5817 309.582 95 314 95C318.418 95 322 98.5817 322 103Z" fill="#E5484D" style="fill:#E5484D;fill:color(display-p3 0.8980 0.2824 0.3020);fill-opacity:1;"/>
<path opacity="0.2" d="M322 45C322 49.4183 318.418 53 314 53C309.582 53 306 49.4183 306 45C306 40.5817 309.582 37 314 37C318.418 37 322 40.5817 322 45Z" fill="#0091FF" style="fill:#0091FF;fill:color(display-p3 0.0000 0.5686 1.0000);fill-opacity:1;"/>
<path d="M317 161C317 162.657 315.657 164 314 164C312.343 164 311 162.657 311 161C311 159.343 312.343 158 314 158C315.657 158 317 159.343 317 161Z" fill="#FFB224" style="fill:#FFB224;fill:color(display-p3 1.0000 0.6980 0.1412);fill-opacity:1;"/>
<path d="M317 103C317 104.657 315.657 106 314 106C312.343 106 311 104.657 311 103C311 101.343 312.343 100 314 100C315.657 100 317 101.343 317 103Z" fill="#E5484D" style="fill:#E5484D;fill:color(display-p3 0.8980 0.2824 0.3020);fill-opacity:1;"/>
<path d="M317 45C317 46.6569 315.657 48 314 48C312.343 48 311 46.6569 311 45C311 43.3431 312.343 42 314 42C315.657 42 317 43.3431 317 45Z" fill="#0091FF" style="fill:#0091FF;fill:color(display-p3 0.0000 0.5686 1.0000);fill-opacity:1;"/>
<path opacity="0.2" d="M322 219C322 223.418 318.418 227 314 227C309.582 227 306 223.418 306 219C306 214.582 309.582 211 314 211C318.418 211 322 214.582 322 219Z" fill="#0C9784" style="fill:#0C9784;fill:color(display-p3 0.0471 0.5922 0.5176);fill-opacity:1;"/>
<path d="M245 132.499L277 132.5C283.628 132.5 289 137.872 289 144.5L289 207C289 213.627 294.375 219 301.003 219C310.377 219 312 218.999 312 218.999" stroke="#0C9784" style="stroke:#0C9784;stroke:color(display-p3 0.0471 0.5922 0.5176);stroke-opacity:1;" stroke-width="2"/>
<path d="M317 219C317 220.657 315.657 222 314 222C312.343 222 311 220.657 311 219C311 217.343 312.343 216 314 216C315.657 216 317 217.343 317 219Z" fill="#0C9784" style="fill:#0C9784;fill:color(display-p3 0.0471 0.5922 0.5176);fill-opacity:1;"/>
<path d="M244.586 132.5L277 132.5C283.627 132.5 289 137.873 289 144.5V151.001C289 156.524 293.479 161.001 299.001 161.001C315.749 161.001 330.984 161 330.984 161" stroke="#FFB224" style="stroke:#FFB224;stroke:color(display-p3 1.0000 0.6980 0.1412);stroke-opacity:1;" stroke-width="2"/>
<path d="M245 132.501L277 132.5C283.628 132.5 289 127.128 289 120.5V56.999C289 50.3716 294.374 44.999 301.002 44.9991C317.054 44.9994 331.359 45 331.359 45" stroke="#0091FF" style="stroke:#0091FF;stroke:color(display-p3 0.0000 0.5686 1.0000);stroke-opacity:1;" stroke-width="2"/>
<path opacity="0.2" d="M266 132.5C266 136.918 262.418 140.5 258 140.5C253.582 140.5 250 136.918 250 132.5C250 128.082 253.582 124.5 258 124.5C262.418 124.5 266 128.082 266 132.5Z" fill="#E5484D" style="fill:#E5484D;fill:color(display-p3 0.8980 0.2824 0.3020);fill-opacity:1;"/>
<path d="M244.605 132.5L277.012 132.5C283.642 132.5 289.016 127.123 289.011 120.492L289.006 113.006C289.003 107.48 293.482 102.999 299.008 102.999C315.753 102.999 330.984 103 330.984 103" stroke="#E5484D" style="stroke:#E5484D;stroke:color(display-p3 0.8980 0.2824 0.3020);stroke-opacity:1;" stroke-width="2"/>
<path d="M166.605 132.501L191 132.5" stroke="#2E2E2E" style="stroke:#2E2E2E;stroke:color(display-p3 0.1804 0.1804 0.1804);stroke-opacity:1;" stroke-width="2"/>
<path d="M261 132.5C261 134.157 259.657 135.5 258 135.5C256.343 135.5 255 134.157 255 132.5C255 130.843 256.343 129.5 258 129.5C259.657 129.5 261 130.843 261 132.5Z" fill="#E5484D" style="fill:#E5484D;fill:color(display-p3 0.8980 0.2824 0.3020);fill-opacity:1;"/>
<path d="M195 132.5C195 134.157 193.657 135.5 192 135.5C190.343 135.5 189 134.157 189 132.5C189 130.843 190.343 129.5 192 129.5C193.657 129.5 195 130.843 195 132.5Z" fill="#2E2E2E" style="fill:#2E2E2E;fill:color(display-p3 0.1804 0.1804 0.1804);fill-opacity:1;"/>
<path d="M250 98.5C254.694 98.5 258.5 102.306 258.5 107V157C258.5 161.694 254.694 165.5 250 165.5H200C195.306 165.5 191.5 161.694 191.5 157V107C191.5 102.306 195.306 98.5 200 98.5H250Z" fill="#0A0A0A" style="fill:#0A0A0A;fill:color(display-p3 0.0392 0.0392 0.0392);fill-opacity:1;"/>
<path d="M250 98.5C254.694 98.5 258.5 102.306 258.5 107V157C258.5 161.694 254.694 165.5 250 165.5H200C195.306 165.5 191.5 161.694 191.5 157V107C191.5 102.306 195.306 98.5 200 98.5H250Z" stroke="#2E2E2E" style="stroke:#2E2E2E;stroke:color(display-p3 0.1804 0.1804 0.1804);stroke-opacity:1;"/>
<g clip-path="url(#clip1_18919_7628)">
<path fill-rule="evenodd" clip-rule="evenodd" d="M224.999 122.93L234.793 140.07H215.205L224.999 122.93Z" fill="white" style="fill:white;fill-opacity:1;"/>
</g>
<path d="M439 27.5C443.694 27.5 447.5 31.3056 447.5 36V54C447.5 58.6944 443.694 62.5 439 62.5H322C317.306 62.5 313.5 58.6944 313.5 54V36C313.5 31.3056 317.306 27.5 322 27.5H439Z" fill="#0A0A0A" style="fill:#0A0A0A;fill:color(display-p3 0.0392 0.0392 0.0392);fill-opacity:1;"/>
<path d="M439 27.5C443.694 27.5 447.5 31.3056 447.5 36V54C447.5 58.6944 443.694 62.5 439 62.5H322C317.306 62.5 313.5 58.6944 313.5 54V36C313.5 31.3056 317.306 27.5 322 27.5H439Z" stroke="#2E2E2E" style="stroke:#2E2E2E;stroke:color(display-p3 0.1804 0.1804 0.1804);stroke-opacity:1;"/>
<g clip-path="url(#clip2_18919_7628)">
<path d="M332.699 43.0915L332.925 51.9888H334.74L334.967 39.8525L332.699 43.0915Z" fill="white" style="fill:white;fill-opacity:1;"/>
<path d="M334.967 38.8638H332.198L327.853 45.069L329.238 47.046L334.967 38.8638Z" fill="white" style="fill:white;fill-opacity:1;"/>
<path d="M323.008 51.9888H325.776L327.161 50.0118L325.776 48.0345L323.008 51.9888Z" fill="white" style="fill:white;fill-opacity:1;"/>
<path d="M323.008 43.0915L329.238 51.9888H332.006L325.776 43.0915H323.008Z" fill="white" style="fill:white;fill-opacity:1;"/>
</g>
<path d="M347.53 48.9263H346.91L346.83 47.7463C346.53 48.5363 345.65 49.0863 344.7 49.0863C342.66 49.0863 341.49 47.4563 341.49 45.3863C341.49 43.3063 342.65 41.6663 344.7 41.6663C346.19 41.6663 347.18 42.5963 347.5 43.9063L346.62 43.9663C346.38 43.0863 345.72 42.4863 344.7 42.4863C343.08 42.4863 342.37 43.8263 342.37 45.3863C342.37 46.9363 343.09 48.2663 344.7 48.2663C345.94 48.2663 346.64 47.3563 346.71 46.1663H344.7V45.3463H347.53V48.9263ZM348.92 43.6263H349.64L349.67 44.6063C349.85 43.9363 350.25 43.6263 350.94 43.6263H351.45V44.3463H350.94C350.13 44.3463 349.74 44.8463 349.74 45.7663V48.9263H348.92V43.6263ZM354.408 49.0463C352.938 49.0463 351.988 47.9563 351.988 46.2763C351.988 44.5963 352.938 43.5063 354.408 43.5063C355.878 43.5063 356.828 44.5963 356.828 46.2763C356.828 47.9563 355.878 49.0463 354.408 49.0463ZM352.848 46.2763C352.848 47.5163 353.418 48.2663 354.408 48.2663C355.388 48.2663 355.968 47.5163 355.968 46.2763C355.968 45.0363 355.388 44.2863 354.408 44.2863C353.418 44.2863 352.848 45.0363 352.848 46.2763ZM358.1 41.8263H358.92V46.4963L361.5 43.6263H362.62L360.52 45.8763L362.72 48.9263H361.71L359.96 46.4363L358.92 47.5563V48.9263H358.1V41.8263Z" fill="#A0A0A0" style="fill:#A0A0A0;fill:color(display-p3 0.6275 0.6275 0.6275);fill-opacity:1;"/>
<path d="M439 85.5C443.694 85.5 447.5 89.3056 447.5 94V112C447.5 116.694 443.694 120.5 439 120.5H322C317.306 120.5 313.5 116.694 313.5 112V94C313.5 89.3056 317.306 85.5 322 85.5H439Z" fill="#0A0A0A" style="fill:#0A0A0A;fill:color(display-p3 0.0392 0.0392 0.0392);fill-opacity:1;"/>
<path d="M439 85.5C443.694 85.5 447.5 89.3056 447.5 94V112C447.5 116.694 443.694 120.5 439 120.5H322C317.306 120.5 313.5 116.694 313.5 112V94C313.5 89.3056 317.306 85.5 322 85.5H439Z" stroke="#2E2E2E" style="stroke:#2E2E2E;stroke:color(display-p3 0.1804 0.1804 0.1804);stroke-opacity:1;"/>
<path d="M335.077 102.139C335.399 101.173 335.288 100.115 334.773 99.2358C333.999 97.8879 332.443 97.1945 330.923 97.5208C330.247 96.7591 329.275 96.3259 328.257 96.3321C326.703 96.3285 325.325 97.3288 324.847 98.8071C323.848 99.0115 322.987 99.6362 322.483 100.522C321.703 101.866 321.881 103.561 322.923 104.713C322.601 105.68 322.712 106.738 323.226 107.617C324.001 108.965 325.557 109.658 327.077 109.332C327.753 110.093 328.724 110.527 329.743 110.52C331.297 110.524 332.676 109.523 333.154 108.043C334.152 107.839 335.014 107.214 335.518 106.329C336.297 104.984 336.119 103.291 335.077 102.138L335.077 102.139ZM329.744 109.593C329.122 109.594 328.519 109.376 328.042 108.977C328.063 108.966 328.101 108.945 328.125 108.93L330.951 107.298C331.095 107.216 331.184 107.062 331.183 106.896V102.913L332.377 103.603C332.39 103.609 332.398 103.621 332.4 103.636V106.934C332.398 108.401 331.21 109.59 329.744 109.593ZM324.031 107.153C323.719 106.615 323.607 105.984 323.714 105.371C323.735 105.384 323.772 105.406 323.798 105.421L326.623 107.053C326.766 107.137 326.944 107.137 327.087 107.053L330.537 105.061V106.44C330.537 106.455 330.531 106.468 330.52 106.477L327.664 108.126C326.392 108.859 324.767 108.423 324.032 107.153H324.031ZM323.288 100.986C323.598 100.447 324.088 100.034 324.671 99.8202C324.671 99.8446 324.67 99.8876 324.67 99.9177V103.182C324.669 103.347 324.758 103.501 324.902 103.583L328.351 105.574L327.157 106.264C327.145 106.272 327.13 106.273 327.117 106.267L324.26 104.617C322.991 103.882 322.556 102.258 323.287 100.986L323.288 100.986ZM333.098 103.269L329.649 101.277L330.843 100.588C330.855 100.58 330.87 100.579 330.883 100.585L333.74 102.234C335.011 102.968 335.447 104.595 334.712 105.867C334.402 106.405 333.912 106.817 333.329 107.032V103.671C333.33 103.505 333.242 103.351 333.098 103.269H333.098ZM334.286 101.48C334.265 101.467 334.229 101.445 334.202 101.43L331.377 99.7985C331.234 99.7147 331.057 99.7147 330.913 99.7985L327.464 101.79V100.411C327.463 100.397 327.47 100.383 327.481 100.374L330.337 98.7268C331.609 97.993 333.235 98.4297 333.968 99.7023C334.278 100.24 334.39 100.869 334.285 101.48H334.286ZM326.815 103.938L325.62 103.248C325.607 103.242 325.599 103.23 325.597 103.216V99.9173C325.598 98.4488 326.789 97.2588 328.258 97.2597C328.879 97.2597 329.48 97.4778 329.958 97.8751C329.936 97.8866 329.899 97.9074 329.874 97.9225L327.049 99.5542C326.904 99.6362 326.816 99.7896 326.817 99.9559L326.815 103.937V103.938ZM327.463 102.539L329 101.652L330.536 102.539V104.313L329 105.2L327.463 104.313V102.539Z" fill="white" style="fill:white;fill-opacity:1;"/>
<path d="M343.89 107.046C342.42 107.046 341.47 105.956 341.47 104.276C341.47 102.596 342.42 101.506 343.89 101.506C345.36 101.506 346.31 102.596 346.31 104.276C346.31 105.956 345.36 107.046 343.89 107.046ZM342.33 104.276C342.33 105.516 342.9 106.266 343.89 106.266C344.87 106.266 345.45 105.516 345.45 104.276C345.45 103.036 344.87 102.286 343.89 102.286C342.9 102.286 342.33 103.036 342.33 104.276ZM349.771 102.746C350.471 102.756 351.271 102.426 351.271 101.516C351.271 100.886 350.691 100.486 349.771 100.486C349.031 100.486 348.501 100.856 348.401 101.426L347.531 101.366C347.661 100.376 348.591 99.6663 349.771 99.6663C351.171 99.6663 352.151 100.426 352.151 101.516C352.151 102.306 351.701 102.846 350.841 103.086C351.841 103.376 352.391 104.066 352.391 104.976C352.391 106.216 351.311 107.086 349.771 107.086C348.361 107.086 347.341 106.266 347.271 105.106L348.141 105.046C348.221 105.916 349.051 106.266 349.771 106.266C350.631 106.266 351.521 105.866 351.521 104.906C351.521 103.956 350.631 103.536 349.771 103.556L349.221 103.566V102.736L349.771 102.746ZM353.472 103.636H356.772V104.396H353.472V103.636ZM358.09 108.426V101.626H358.83L358.86 102.436C359.15 101.836 359.73 101.506 360.5 101.506C362.08 101.506 362.79 102.806 362.79 104.276C362.79 105.746 362.08 107.046 360.5 107.046C359.76 107.046 359.2 106.736 358.91 106.166V108.426H358.09ZM358.82 104.276C358.82 105.286 359.28 106.256 360.36 106.256C361.46 106.256 361.91 105.306 361.91 104.276C361.91 103.246 361.46 102.286 360.36 102.286C359.28 102.286 358.82 103.266 358.82 104.276ZM364.057 101.626H364.777L364.807 102.606C364.987 101.936 365.387 101.626 366.077 101.626H366.587V102.346H366.077C365.267 102.346 364.877 102.846 364.877 103.766V106.926H364.057V101.626ZM369.544 107.046C368.074 107.046 367.124 105.956 367.124 104.276C367.124 102.596 368.074 101.506 369.544 101.506C371.014 101.506 371.964 102.596 371.964 104.276C371.964 105.956 371.014 107.046 369.544 107.046ZM367.984 104.276C367.984 105.516 368.554 106.266 369.544 106.266C370.524 106.266 371.104 105.516 371.104 104.276C371.104 103.036 370.524 102.286 369.544 102.286C368.554 102.286 367.984 103.036 367.984 104.276Z" fill="#A0A0A0" style="fill:#A0A0A0;fill:color(display-p3 0.6275 0.6275 0.6275);fill-opacity:1;"/>
<path d="M439 143.5C443.694 143.5 447.5 147.306 447.5 152V170C447.5 174.694 443.694 178.5 439 178.5H322C317.306 178.5 313.5 174.694 313.5 170V152C313.5 147.306 317.306 143.5 322 143.5H439Z" fill="#0A0A0A" style="fill:#0A0A0A;fill:color(display-p3 0.0392 0.0392 0.0392);fill-opacity:1;"/>
<path d="M439 143.5C443.694 143.5 447.5 147.306 447.5 152V170C447.5 174.694 443.694 178.5 439 178.5H322C317.306 178.5 313.5 174.694 313.5 170V152C313.5 147.306 317.306 143.5 322 143.5H439Z" stroke="#2E2E2E" style="stroke:#2E2E2E;stroke:color(display-p3 0.1804 0.1804 0.1804);stroke-opacity:1;"/>
<path d="M324.746 163.738L327.501 162.192L327.547 162.058L327.501 161.983H327.367L326.906 161.955L325.332 161.912L323.967 161.855L322.645 161.784L322.312 161.714L322 161.302L322.032 161.097L322.312 160.909L322.713 160.944L323.599 161.004L324.928 161.096L325.892 161.153L327.321 161.301H327.547L327.58 161.21L327.502 161.153L327.442 161.096L326.066 160.164L324.577 159.179L323.797 158.612L323.376 158.324L323.163 158.055L323.071 157.467L323.454 157.045L323.968 157.08L324.1 157.115L324.621 157.516L325.733 158.377L327.186 159.447L327.399 159.624L327.484 159.564L327.494 159.521L327.399 159.361L326.609 157.933L325.765 156.48L325.39 155.878L325.291 155.517C325.256 155.368 325.23 155.243 325.23 155.091L325.666 154.499L325.907 154.422L326.489 154.499L326.733 154.712L327.095 155.538L327.68 156.839L328.587 158.608L328.853 159.133L328.995 159.619L329.048 159.767H329.139V159.682L329.214 158.685L329.352 157.462L329.486 155.888L329.533 155.445L329.752 154.913L330.188 154.626L330.528 154.789L330.808 155.19L330.769 155.449L330.603 156.53L330.277 158.224L330.064 159.359H330.188L330.33 159.217L330.904 158.455L331.868 157.249L332.293 156.771L332.79 156.243L333.108 155.991H333.71L334.154 156.65L333.955 157.331L333.335 158.117L332.821 158.784L332.083 159.776L331.623 160.571L331.665 160.634L331.775 160.624L333.441 160.269L334.341 160.106L335.415 159.922L335.901 160.149L335.954 160.38L335.763 160.851L334.614 161.135L333.267 161.404L331.261 161.879L331.236 161.897L331.265 161.932L332.168 162.017L332.555 162.038H333.501L335.264 162.169L335.724 162.474L336 162.846L335.954 163.13L335.245 163.491L334.288 163.264L332.055 162.733L331.289 162.542H331.183V162.605L331.821 163.229L332.991 164.285L334.455 165.646L334.53 165.983L334.342 166.248L334.143 166.22L332.857 165.252L332.36 164.816L331.236 163.87H331.162V163.969L331.421 164.348L332.789 166.404L332.859 167.035L332.76 167.24L332.406 167.364L332.016 167.293L331.215 166.169L330.389 164.903L329.723 163.769L329.641 163.815L329.248 168.051L329.064 168.268L328.638 168.43L328.284 168.161L328.096 167.725L328.284 166.864L328.511 165.74L328.695 164.846L328.862 163.737L328.961 163.368L328.954 163.343L328.873 163.354L328.036 164.502L326.764 166.222L325.757 167.3L325.516 167.395L325.098 167.179L325.137 166.792L325.37 166.448L326.764 164.675L327.604 163.577L328.147 162.943L328.143 162.851H328.111L324.41 165.254L323.751 165.339L323.467 165.073L323.502 164.638L323.636 164.496L324.749 163.73L324.745 163.734L324.746 163.738Z" fill="#D97757" style="fill:#D97757;fill:color(display-p3 0.8510 0.4667 0.3412);fill-opacity:1;"/>
<path d="M342.47 162.606C342.65 163.566 343.33 164.226 344.46 164.226C345.38 164.226 346 163.846 346 163.136C346 162.416 345.38 161.976 343.95 161.606C342.77 161.306 341.74 160.746 341.74 159.606C341.74 158.416 342.7 157.666 344.06 157.666C345.58 157.666 346.59 158.616 346.73 159.916L345.85 159.976C345.73 159.086 345.04 158.486 344.05 158.486C343.22 158.486 342.62 158.916 342.62 159.606C342.62 160.476 343.63 160.716 344.56 160.976C345.87 161.336 346.88 161.976 346.88 163.056C346.88 164.356 345.68 165.046 344.4 165.046C342.84 165.046 341.7 164.086 341.59 162.666L342.47 162.606ZM350.365 165.046C348.895 165.046 347.945 163.956 347.945 162.276C347.945 160.596 348.895 159.506 350.365 159.506C351.835 159.506 352.785 160.596 352.785 162.276C352.785 163.956 351.835 165.046 350.365 165.046ZM348.805 162.276C348.805 163.516 349.375 164.266 350.365 164.266C351.345 164.266 351.925 163.516 351.925 162.276C351.925 161.036 351.345 160.286 350.365 160.286C349.375 160.286 348.805 161.036 348.805 162.276ZM354.057 159.626H354.807L354.837 160.536C355.107 159.826 355.737 159.506 356.467 159.506C357.677 159.506 358.257 160.396 358.257 161.516V164.926H357.437V161.756C357.437 160.776 357.107 160.236 356.297 160.236C355.437 160.236 354.877 160.776 354.877 161.756V164.926H354.057V159.626ZM359.702 159.626H360.452L360.482 160.536C360.752 159.826 361.382 159.506 362.112 159.506C363.322 159.506 363.902 160.396 363.902 161.516V164.926H363.082V161.756C363.082 160.776 362.752 160.236 361.942 160.236C361.082 160.236 360.522 160.776 360.522 161.756V164.926H359.702V159.626ZM365.015 162.276C365.015 160.596 365.965 159.506 367.435 159.506C368.615 159.506 369.645 160.296 369.735 162.166L369.745 162.536H365.885C365.965 163.626 366.515 164.266 367.435 164.266C368.015 164.266 368.535 163.926 368.775 163.366L369.655 163.426C369.345 164.426 368.455 165.046 367.435 165.046C365.965 165.046 365.015 163.956 365.015 162.276ZM365.905 161.806H368.845C368.695 160.686 368.095 160.286 367.435 160.286C366.585 160.286 366.035 160.846 365.905 161.806ZM371.296 158.426H372.116V159.626H373.526V160.356H372.116V163.526C372.116 163.976 372.336 164.196 372.756 164.196H373.516V164.926H372.756C371.816 164.926 371.296 164.426 371.296 163.526V160.356H370.516V159.626H371.296V158.426Z" fill="#A0A0A0" style="fill:#A0A0A0;fill:color(display-p3 0.6275 0.6275 0.6275);fill-opacity:1;"/>
<path d="M439 201.5C443.694 201.5 447.5 205.306 447.5 210V228C447.5 232.694 443.694 236.5 439 236.5H322C317.306 236.5 313.5 232.694 313.5 228V210C313.5 205.306 317.306 201.5 322 201.5H439Z" fill="#0A0A0A" style="fill:#0A0A0A;fill:color(display-p3 0.0392 0.0392 0.0392);fill-opacity:1;"/>
<path d="M439 201.5C443.694 201.5 447.5 205.306 447.5 210V228C447.5 232.694 443.694 236.5 439 236.5H322C317.306 236.5 313.5 232.694 313.5 228V210C313.5 205.306 317.306 201.5 322 201.5H439Z" stroke="#2E2E2E" style="stroke:#2E2E2E;stroke:color(display-p3 0.1804 0.1804 0.1804);stroke-opacity:1;"/>
<g clip-path="url(#clip3_18919_7628)">
<path d="M330.394 216.74C330.601 218.812 332.24 220.45 334.312 220.658L335.125 220.739V221.614L334.312 221.695C332.24 221.902 330.601 223.541 330.394 225.613L330.312 226.426H329.438L329.356 225.613C329.149 223.541 327.51 221.902 325.438 221.695L324.625 221.614V220.739L325.438 220.658C327.51 220.45 329.149 218.812 329.356 216.74L329.438 215.926H330.312L330.394 216.74ZM325.062 212.864C325.063 213.83 325.846 214.614 326.812 214.614H327.25V215.489H326.812C325.846 215.489 325.062 216.272 325.062 217.239V217.676H324.188V217.239C324.188 216.272 323.404 215.489 322.438 215.489H322V214.614H322.438C323.404 214.614 324.187 213.83 324.188 212.864V212.426H325.062V212.864ZM334.688 213.739C334.688 214.222 335.079 214.614 335.562 214.614H336V215.489H335.562C335.079 215.489 334.688 215.881 334.688 216.364V216.801H333.812V216.364C333.812 215.881 333.421 215.489 332.938 215.489H332.5V214.614H332.938C333.421 214.614 333.812 214.222 333.812 213.739V213.301H334.688V213.739Z" fill="#A0A0A0" style="fill:#A0A0A0;fill:color(display-p3 0.6275 0.6275 0.6275);fill-opacity:1;"/>
</g>
<path d="M346.52 215.826V216.646H344.31V222.926H343.47V216.646H341.25V215.826H346.52ZM347.543 215.826H348.363V218.366C348.673 217.776 349.293 217.506 349.953 217.506C351.163 217.506 351.743 218.396 351.743 219.516V222.926H350.923V219.816C350.923 218.826 350.593 218.286 349.783 218.286C348.923 218.286 348.363 218.826 348.363 219.816V222.926H347.543V215.826ZM352.857 220.276C352.857 218.596 353.807 217.506 355.277 217.506C356.457 217.506 357.487 218.296 357.577 220.166L357.587 220.536H353.727C353.807 221.626 354.357 222.266 355.277 222.266C355.857 222.266 356.377 221.926 356.617 221.366L357.497 221.426C357.187 222.426 356.297 223.046 355.277 223.046C353.807 223.046 352.857 221.956 352.857 220.276ZM353.747 219.806H356.687C356.537 218.686 355.937 218.286 355.277 218.286C354.427 218.286 353.877 218.846 353.747 219.806ZM361.411 217.626H362.161L362.191 218.536C362.461 217.826 363.091 217.506 363.821 217.506C365.031 217.506 365.611 218.396 365.611 219.516V222.926H364.791V219.756C364.791 218.776 364.461 218.236 363.651 218.236C362.791 218.236 362.231 218.776 362.231 219.756V222.926H361.411V217.626ZM366.724 220.276C366.724 218.596 367.674 217.506 369.144 217.506C370.324 217.506 371.354 218.296 371.444 220.166L371.454 220.536H367.594C367.674 221.626 368.224 222.266 369.144 222.266C369.724 222.266 370.244 221.926 370.484 221.366L371.364 221.426C371.054 222.426 370.164 223.046 369.144 223.046C367.674 223.046 366.724 221.956 366.724 220.276ZM367.614 219.806H370.554C370.404 218.686 369.804 218.286 369.144 218.286C368.294 218.286 367.744 218.846 367.614 219.806ZM375.69 217.626H376.7L374.87 220.216L376.79 222.926H375.79L374.35 220.846L372.9 222.926H371.9L373.84 220.206L372 217.626H373L374.35 219.586L375.69 217.626ZM378.464 216.426H379.284V217.626H380.694V218.356H379.284V221.526C379.284 221.976 379.504 222.196 379.924 222.196H380.684V222.926H379.924C378.984 222.926 378.464 222.426 378.464 221.526V218.356H377.684V217.626H378.464V216.426ZM384.428 215.826H385.248V218.346C385.548 217.806 386.108 217.506 386.888 217.506C388.418 217.506 389.128 218.806 389.128 220.276C389.128 221.746 388.418 223.046 386.888 223.046C386.068 223.046 385.498 222.706 385.198 222.146L385.168 222.926H384.428V215.826ZM385.178 220.276C385.178 221.286 385.628 222.266 386.718 222.266C387.828 222.266 388.268 221.306 388.268 220.276C388.268 219.216 387.828 218.256 386.718 218.256C385.628 218.256 385.178 219.226 385.178 220.276ZM390.395 217.626H391.215V222.926H390.395V217.626ZM390.375 216.796V215.846H391.235V216.796H390.375ZM394.914 222.646C393.464 222.646 392.534 221.566 392.534 220.076C392.534 218.586 393.484 217.506 394.914 217.506C395.624 217.506 396.204 217.906 396.434 218.476V217.626H397.224V222.406C397.224 223.796 396.274 224.546 394.894 224.546C393.764 224.546 392.914 223.926 392.684 223.006L393.544 222.946C393.754 223.456 394.214 223.766 394.894 223.766C395.834 223.766 396.404 223.346 396.404 222.586V221.706C396.084 222.336 395.484 222.646 394.914 222.646ZM393.394 220.076C393.394 221.116 393.964 221.866 394.914 221.866C395.824 221.866 396.404 221.106 396.414 220.076C396.434 219.046 395.854 218.286 394.914 218.286C393.964 218.286 393.394 219.036 393.394 220.076ZM401.95 216.426H402.77V217.626H404.18V218.356H402.77V221.526C402.77 221.976 402.99 222.196 403.41 222.196H404.17V222.926H403.41C402.47 222.926 401.95 222.426 401.95 221.526V218.356H401.17V217.626H401.95V216.426ZM405.414 215.826H406.234V218.366C406.544 217.776 407.164 217.506 407.824 217.506C409.034 217.506 409.614 218.396 409.614 219.516V222.926H408.794V219.816C408.794 218.826 408.464 218.286 407.654 218.286C406.794 218.286 406.234 218.826 406.234 219.816V222.926H405.414V215.826ZM411.059 217.626H411.879V222.926H411.059V217.626ZM411.039 216.796V215.846H411.899V216.796H411.039ZM413.442 217.626H414.192L414.222 218.536C414.492 217.826 415.122 217.506 415.852 217.506C417.062 217.506 417.642 218.396 417.642 219.516V222.926H416.822V219.756C416.822 218.776 416.492 218.236 415.682 218.236C414.822 218.236 414.262 218.776 414.262 219.756V222.926H413.442V217.626ZM421.135 222.646C419.685 222.646 418.755 221.566 418.755 220.076C418.755 218.586 419.705 217.506 421.135 217.506C421.845 217.506 422.425 217.906 422.655 218.476V217.626H423.445V222.406C423.445 223.796 422.495 224.546 421.115 224.546C419.985 224.546 419.135 223.926 418.905 223.006L419.765 222.946C419.975 223.456 420.435 223.766 421.115 223.766C422.055 223.766 422.625 223.346 422.625 222.586V221.706C422.305 222.336 421.705 222.646 421.135 222.646ZM419.615 220.076C419.615 221.116 420.185 221.866 421.135 221.866C422.045 221.866 422.625 221.106 422.635 220.076C422.655 219.046 422.075 218.286 421.135 218.286C420.185 218.286 419.615 219.036 419.615 220.076Z" fill="#A0A0A0" style="fill:#A0A0A0;fill:color(display-p3 0.6275 0.6275 0.6275);fill-opacity:1;"/>
<defs>
<filter id="filter0_f_18919_7628" x="0" y="65" width="169" height="136" filterUnits="userSpaceOnUse" color-interpolation-filters="sRGB">
<feFlood flood-opacity="0" result="BackgroundImageFix"/>
<feBlend mode="normal" in="SourceGraphic" in2="BackgroundImageFix" result="shape"/>
<feGaussianBlur stdDeviation="1" result="effect1_foregroundBlur_18919_7628"/>
</filter>
<filter id="filter1_f_18919_7628" x="189" y="97" width="72" height="72" filterUnits="userSpaceOnUse" color-interpolation-filters="sRGB">
<feFlood flood-opacity="0" result="BackgroundImageFix"/>
<feBlend mode="normal" in="SourceGraphic" in2="BackgroundImageFix" result="shape"/>
<feGaussianBlur stdDeviation="1" result="effect1_foregroundBlur_18919_7628"/>
</filter>
<filter id="filter2_f_18919_7628" x="311" y="26" width="139" height="40" filterUnits="userSpaceOnUse" color-interpolation-filters="sRGB">
<feFlood flood-opacity="0" result="BackgroundImageFix"/>
<feBlend mode="normal" in="SourceGraphic" in2="BackgroundImageFix" result="shape"/>
<feGaussianBlur stdDeviation="1" result="effect1_foregroundBlur_18919_7628"/>
</filter>
<filter id="filter3_f_18919_7628" x="311" y="84" width="139" height="40" filterUnits="userSpaceOnUse" color-interpolation-filters="sRGB">
<feFlood flood-opacity="0" result="BackgroundImageFix"/>
<feBlend mode="normal" in="SourceGraphic" in2="BackgroundImageFix" result="shape"/>
<feGaussianBlur stdDeviation="1" result="effect1_foregroundBlur_18919_7628"/>
</filter>
<filter id="filter4_f_18919_7628" x="311" y="142" width="139" height="40" filterUnits="userSpaceOnUse" color-interpolation-filters="sRGB">
<feFlood flood-opacity="0" result="BackgroundImageFix"/>
<feBlend mode="normal" in="SourceGraphic" in2="BackgroundImageFix" result="shape"/>
<feGaussianBlur stdDeviation="1" result="effect1_foregroundBlur_18919_7628"/>
</filter>
<filter id="filter5_f_18919_7628" x="311" y="200" width="139" height="40" filterUnits="userSpaceOnUse" color-interpolation-filters="sRGB">
<feFlood flood-opacity="0" result="BackgroundImageFix"/>
<feBlend mode="normal" in="SourceGraphic" in2="BackgroundImageFix" result="shape"/>
<feGaussianBlur stdDeviation="1" result="effect1_foregroundBlur_18919_7628"/>
</filter>
<linearGradient id="paint0_linear_18919_7628" x1="74.2721" y1="0" x2="74.2721" y2="130.588" gradientUnits="userSpaceOnUse">
<stop offset="0.02" stop-color="white" stop-opacity="0" style="stop-color:none;stop-opacity:0;"/>
<stop offset="0.12" stop-color="white" stop-opacity="0.84" style="stop-color:white;stop-opacity:0.84;"/>
<stop offset="0.88" stop-color="white" style="stop-color:white;stop-opacity:1;"/>
<stop offset="0.98" stop-color="white" stop-opacity="0" style="stop-color:none;stop-opacity:0;"/>
</linearGradient>
<clipPath id="clip0_18919_7628">
<rect x="3" y="67" width="163" height="130" rx="12" fill="white" style="fill:white;fill-opacity:1;"/>
</clipPath>
<clipPath id="clip1_18919_7628">
<rect width="19.5882" height="19.5882" fill="white" style="fill:white;fill-opacity:1;" transform="translate(215.205 121.706)"/>
</clipPath>
<clipPath id="clip2_18919_7628">
<rect width="14" height="14" fill="white" style="fill:white;fill-opacity:1;" transform="translate(322 38.4263)"/>
</clipPath>
<clipPath id="clip3_18919_7628">
<rect width="14" height="14" fill="white" style="fill:white;fill-opacity:1;" transform="translate(322 212.426)"/>
</clipPath>
</defs>
</svg>
