<svg width="812" height="710" viewBox="0 0 812 710" fill="none" xmlns="http://www.w3.org/2000/svg">
<path d="M405.934 1.00684L811.434 709.689H405.934H0.434082L405.934 1.00684Z" fill="black"/>
<path d="M811.434 709.689L405.934 1.00684L0.434082 709.689" stroke="white"/>
<path d="M811.434 709.423L405.934 47.4233L0.434082 709.423" stroke="white"/>
<path d="M811.434 709.423L405.934 92.4233L0.434082 709.423" stroke="white"/>
<path d="M811.434 709.423L405.934 135.423L0.434082 709.423" stroke="white"/>
<path d="M811.434 709.423L405.934 173.423L0.434082 709.423" stroke="white"/>
<path d="M811.434 709.423L405.934 214.423L0.434082 709.423" stroke="white"/>
<path d="M811.434 709.423L405.934 252.423L0.434082 709.423" stroke="white"/>
<path d="M811.434 709.423L405.934 288.423L0.434082 709.423" stroke="white"/>
<path d="M811.434 709.423L405.934 323.423L0.434082 709.423" stroke="white"/>
<path d="M811.434 709.423L405.934 355.423L0.434082 709.423" stroke="white"/>
<path d="M811.434 709.423L405.934 387.423L0.434082 709.423" stroke="white"/>
<path d="M811.434 709.423L405.934 423.423L0.434082 709.423" stroke="white"/>
</svg>
